<?xml version="1.0" standalone="no"?>
<!DOCTYPE svg PUBLIC "-//W3C//DTD SVG 20010904//EN"
 "http://www.w3.org/TR/2001/REC-SVG-20010904/DTD/svg10.dtd">
<svg version="1.0" xmlns="http://www.w3.org/2000/svg"
 width="200.000000pt" height="200.000000pt" viewBox="0 0 200.000000 200.000000"
 preserveAspectRatio="xMidYMid meet">

<g transform="translate(0.000000,200.000000) scale(0.100000,-0.100000)"
fill="#000000" stroke="none">
<path d="M960 1315 c-7 -9 -20 -13 -30 -10 -17 5 -52 -24 -49 -41 4 -25 -3
-44 -16 -44 -22 0 -19 -46 5 -70 12 -12 18 -25 14 -31 -9 -16 26 -49 53 -49
13 0 26 -7 29 -15 9 -23 44 -19 44 5 0 22 29 27 47 9 13 -13 33 -4 33 16 0 20
-20 29 -33 16 -14 -14 -47 -15 -47 -1 0 6 -9 10 -20 10 -32 0 -70 44 -70 80 0
36 38 80 70 80 11 0 20 5 20 10 0 14 33 13 47 -1 13 -13 33 -4 33 16 0 20 -20
29 -33 16 -16 -16 -47 -14 -47 4 0 20 -34 19 -50 0z"/>
<path d="M1098 1260 c-14 -15 -30 -20 -71 -20 -40 0 -58 -5 -70 -18 -39 -43
-9 -82 63 -82 58 0 80 -7 80 -27 0 -9 8 -13 23 -11 12 2 22 10 22 18 0 11 -18
17 -70 23 -102 12 -112 15 -119 33 -12 30 22 54 78 55 73 2 111 12 111 29 0
23 -28 23 -47 0z"/>
<path d="M1105 1200 c-3 -5 -32 -11 -63 -11 l-57 -2 75 -8 c74 -7 99 -2 86 20
-9 14 -33 14 -41 1z"/>
<path d="M469 951 c-37 -38 -39 -82 -4 -116 28 -29 80 -33 111 -10 17 13 15
14 -29 8 -56 -7 -87 13 -87 59 0 52 53 83 101 58 21 -12 28 -80 8 -80 -6 0 -9
14 -7 32 3 27 0 32 -23 35 -35 4 -64 -27 -55 -61 5 -22 11 -25 49 -24 54 2 67
12 67 53 0 24 -7 39 -26 54 -37 29 -70 26 -105 -8z m69 -53 c-4 -29 -38 -38
-38 -10 0 22 8 32 27 32 9 0 13 -8 11 -22z"/>
<path d="M639 914 c-29 -63 -31 -98 -5 -61 17 23 72 23 85 0 5 -10 13 -15 16
-11 8 7 -50 138 -60 138 -3 0 -20 -30 -36 -66z m54 -4 c4 -16 0 -20 -19 -20
-21 0 -23 2 -12 25 12 27 23 26 31 -5z"/>
<path d="M1182 963 c-60 -51 -11 -149 61 -124 29 10 16 24 -23 25 -34 1 -35 2
-35 40 0 47 24 68 55 49 11 -8 21 -9 25 -3 6 10 -26 30 -48 30 -8 0 -24 -8
-35 -17z"/>
<path d="M1280 910 c0 -54 3 -70 14 -70 10 0 16 13 18 37 2 27 8 39 21 41 14
3 17 -4 17 -37 0 -23 5 -41 11 -41 6 0 9 19 7 48 -3 44 -5 47 -30 47 -23 -1
-28 4 -28 22 0 14 -6 23 -15 23 -12 0 -15 -14 -15 -70z"/>
<path d="M1511 951 c-10 -17 -18 -20 -51 -16 -44 6 -70 -12 -70 -49 0 -32 19
-46 62 -46 38 0 38 0 38 40 0 22 5 40 10 40 6 0 10 -13 10 -29 0 -37 27 -68
44 -50 8 8 8 13 -1 16 -17 6 -17 60 -1 65 8 3 5 12 -9 27 l-21 23 -11 -21z
m-53 -64 c3 -22 -1 -27 -18 -27 -23 0 -35 22 -26 46 10 25 41 12 44 -19z"/>
<path d="M765 924 c-33 -33 -6 -90 38 -82 23 4 25 3 16 -14 -7 -13 -16 -17
-34 -12 -14 3 -25 2 -25 -4 0 -17 44 -22 67 -6 20 12 23 23 23 73 l0 58 -35 1
c-19 1 -41 -5 -50 -14z m53 -37 c3 -21 -1 -27 -16 -27 -22 0 -34 22 -25 45 9
25 38 13 41 -18z"/>
<path d="M875 916 c-23 -35 -5 -76 33 -76 34 0 52 16 52 46 0 51 -58 71 -85
30z m63 -19 c5 -23 -16 -47 -34 -40 -14 5 -19 44 -7 57 12 12 38 1 41 -17z"/>
<path d="M980 888 c0 -26 5 -48 10 -48 6 0 10 16 10 36 0 27 5 37 20 41 30 8
24 22 -10 21 -29 -1 -30 -3 -30 -50z"/>
<path d="M1052 928 c-19 -19 -14 -65 8 -81 11 -8 32 -12 45 -9 22 4 25 9 25
52 0 46 0 47 -33 48 -19 1 -39 -4 -45 -10z m56 -37 c4 -28 -17 -45 -35 -29
-14 11 -17 40 -6 52 14 14 38 0 41 -23z"/>
</g>
</svg>
